RobotoSerifMicroWide-Hairline03ip.ufo
<glyph name="ampersand" format="2">
  <advance width="807"/>
  <unicode hex="0026"/>
  <outline>
    <contour>
      <point x="663" y="319" type="curve" smooth="yes"/>
      <point x="670" y="352"/>
      <point x="694" y="357"/>
      <point x="748" y="357" type="curve" smooth="yes"/>
      <point x="760" y="357" type="line"/>
      <point x="760" y="397" type="line"/>
      <point x="536" y="397" type="line"/>
      <point x="536" y="357" type="line"/>
      <point x="546" y="357" type="line" smooth="yes"/>
      <point x="576" y="357"/>
      <point x="614" y="355"/>
      <point x="614" y="342" type="curve" smooth="yes"/>
      <point x="614.0" y="223.0"/>
      <point x="526" y="34"/>
      <point x="316" y="34" type="curve" smooth="yes"/>
      <point x="193.0" y="34"/>
      <point x="130" y="89"/>
      <point x="130" y="199" type="curve" smooth="yes"/>
      <point x="130.0" y="300.0"/>
      <point x="190" y="356"/>
      <point x="282" y="389" type="curve"/>
      <point x="258" y="412" type="line"/>
      <point x="151" y="379"/>
      <point x="75" y="309"/>
      <point x="75" y="194" type="curve" smooth="yes"/>
      <point x="75" y="61.0"/>
      <point x="159" y="-10"/>
      <point x="307" y="-10" type="curve" smooth="yes"/>
      <point x="559.0" y="-10.0"/>
      <point x="640" y="203"/>
    </contour>
    <contour>
      <point x="751" y="0" type="line"/>
      <point x="751" y="40" type="line"/>
      <point x="701" y="40" type="line" smooth="yes"/>
      <point x="659" y="40"/>
      <point x="638" y="49"/>
      <point x="605" y="80" type="curve" smooth="yes"/>
      <point x="381" y="296"/>
      <point x="263" y="422"/>
      <point x="263" y="553" type="curve" smooth="yes"/>
      <point x="263" y="640"/>
      <point x="318" y="680"/>
      <point x="388" y="680" type="curve" smooth="yes"/>
      <point x="455.0" y="680.0"/>
      <point x="490" y="647"/>
      <point x="490" y="586" type="curve" smooth="yes"/>
      <point x="490.0" y="504.0"/>
      <point x="443" y="463"/>
      <point x="294" y="421" type="curve"/>
      <point x="308" y="395" type="line"/>
      <point x="464" y="432"/>
      <point x="542" y="483"/>
      <point x="542" y="585" type="curve" smooth="yes"/>
      <point x="542.0" y="672.0"/>
      <point x="486" y="718"/>
      <point x="388" y="718" type="curve" smooth="yes"/>
      <point x="277.0" y="718.0"/>
      <point x="208" y="649"/>
      <point x="208" y="552" type="curve" smooth="yes"/>
      <point x="208" y="385"/>
      <point x="404" y="206"/>
      <point x="610" y="0" type="curve"/>
    </contour>
  </outline>
</glyph>
<glyph name="three" format="2">
  <advance width="680"/>
  <unicode hex="0033"/>
  <outline>
    <contour>
      <point x="364" y="297" type="line"/>
      <point x="548" y="286"/>
      <point x="593" y="217"/>
      <point x="593" y="122" type="curve" smooth="yes"/>
      <point x="593" y="-8"/>
      <point x="487" y="-90"/>
      <point x="326" y="-90" type="curve" smooth="yes"/>
      <point x="167" y="-90"/>
      <point x="84" y="-28"/>
      <point x="44" y="70" type="curve"/>
      <point x="95" y="93" type="line"/>
      <point x="128" y="19"/>
      <point x="181" y="-45"/>
      <point x="326" y="-45" type="curve" smooth="yes"/>
      <point x="466" y="-45"/>
      <point x="534" y="13"/>
      <point x="534" y="120" type="curve" smooth="yes"/>
      <point x="534" y="218"/>
      <point x="492" y="274"/>
      <point x="308" y="274" type="curve" smooth="yes"/>
      <point x="215" y="274" type="line"/>
      <point x="215" y="318" type="line"/>
      <point x="293" y="318" type="line" smooth="yes"/>
      <point x="441" y="318"/>
      <point x="510" y="375"/>
      <point x="510" y="471" type="curve" smooth="yes"/>
      <point x="510" y="569"/>
      <point x="446" y="604"/>
      <point x="342" y="604" type="curve" smooth="yes"/>
      <point x="243" y="604"/>
      <point x="184" y="584"/>
      <point x="138" y="552" type="curve"/>
      <point x="123" y="558"/>
      <point x="132" y="586"/>
      <point x="164" y="590" type="curve"/>
      <point x="164" y="443" type="line"/>
      <point x="112" y="443" type="line"/>
      <point x="112" y="591" type="line"/>
      <point x="143" y="612"/>
      <point x="222" y="648"/>
      <point x="341" y="648" type="curve" smooth="yes"/>
      <point x="485" y="648"/>
      <point x="563" y="594"/>
      <point x="563" y="482" type="curve" smooth="yes"/>
      <point x="563" y="383"/>
      <point x="498" y="315"/>
      <point x="369" y="301" type="curve"/>
      <point x="394" y="312" type="line"/>
      <point x="394" y="282" type="line"/>
    </contour>
  </outline>
</glyph>
<glyph name="nine" format="2">
  <advance width="680"/>
  <unicode hex="0039"/>
  <outline>
    <contour>
      <point x="118" y="-60" type="line"/>
      <point x="385" y="-37"/>
      <point x="553" y="65"/>
      <point x="553" y="344" type="curve" smooth="yes"/>
      <point x="553" y="529"/>
      <point x="455" y="605"/>
      <point x="330" y="605" type="curve" smooth="yes"/>
      <point x="179" y="605"/>
      <point x="124" y="511"/>
      <point x="124" y="396" type="curve" smooth="yes"/>
      <point x="124.0" y="290.0"/>
      <point x="161" y="211"/>
      <point x="299" y="211" type="curve" smooth="yes"/>
      <point x="419" y="211"/>
      <point x="492" y="266"/>
      <point x="575" y="406" type="curve"/>
      <point x="575" y="365" type="line"/>
      <point x="520" y="233"/>
      <point x="415" y="167"/>
      <point x="292" y="167" type="curve" smooth="yes"/>
      <point x="148" y="167"/>
      <point x="70" y="245"/>
      <point x="70" y="396" type="curve" smooth="yes"/>
      <point x="70" y="542.0"/>
      <point x="163" y="649"/>
      <point x="334" y="649" type="curve" smooth="yes"/>
      <point x="480" y="649"/>
      <point x="603" y="563"/>
      <point x="603" y="344" type="curve" smooth="yes"/>
      <point x="603" y="45"/>
      <point x="407" y="-76"/>
      <point x="124" y="-105" type="curve"/>
    </contour>
  </outline>
</glyph>
<glyph name="acute" format="2">
  <advance width="530"/>
  <unicode hex="00B4"/>
  <anchor x="238" y="565" name="_top"/>
  <outline>
    <contour>
      <point x="301" y="793" type="curve" smooth="yes"/>
      <point x="226" y="679" type="line"/>
      <point x="226" y="661" type="line"/>
      <point x="248" y="661" type="line"/>
      <point x="364" y="760" type="line" smooth="yes"/>
      <point x="392" y="784"/>
      <point x="407" y="798"/>
      <point x="407" y="824" type="curve" smooth="yes"/>
      <point x="407" y="840"/>
      <point x="397" y="855"/>
      <point x="370" y="855" type="curve" smooth="yes"/>
      <point x="338" y="855"/>
      <point x="324" y="828"/>
    </contour>
  </outline>
</glyph>
<glyph name="germandbls" format="2">
  <advance width="717"/>
  <unicode hex="00DF"/>
  <outline>
    <contour>
      <point x="56" y="565" type="line"/>
      <point x="56" y="521" type="line"/>
      <point x="216" y="521" type="line"/>
      <point x="216" y="565" type="line"/>
    </contour>
    <contour>
      <point x="417" y="442" type="line"/>
      <point x="521" y="445"/>
      <point x="612" y="497"/>
      <point x="612" y="618" type="curve" smooth="yes"/>
      <point x="612" y="724"/>
      <point x="545" y="790"/>
      <point x="413" y="790" type="curve" smooth="yes"/>
      <point x="297" y="790"/>
      <point x="193" y="731"/>
      <point x="193" y="569" type="curve" smooth="yes"/>
      <point x="193" y="89" type="line" smooth="yes"/>
      <point x="193" y="49"/>
      <point x="163" y="39"/>
      <point x="103" y="39" type="curve" smooth="yes"/>
      <point x="56" y="39" type="line"/>
      <point x="56" y="0" type="line"/>
      <point x="241" y="0" type="line"/>
      <point x="241" y="566" type="line" smooth="yes"/>
      <point x="241" y="693"/>
      <point x="298" y="747"/>
      <point x="413" y="747" type="curve" smooth="yes"/>
      <point x="507" y="747"/>
      <point x="563" y="707"/>
      <point x="563" y="614" type="curve" smooth="yes"/>
      <point x="563" y="501"/>
      <point x="476" y="464"/>
      <point x="388" y="458" type="curve"/>
      <point x="388" y="413" type="line"/>
      <point x="400" y="413" type="line" smooth="yes"/>
      <point x="522" y="413"/>
      <point x="605" y="353"/>
      <point x="605" y="220" type="curve" smooth="yes"/>
      <point x="605" y="88"/>
      <point x="540" y="35"/>
      <point x="437" y="35" type="curve" smooth="yes"/>
      <point x="411" y="35"/>
      <point x="380" y="39"/>
      <point x="358" y="45" type="curve"/>
      <point x="358" y="1" type="line"/>
      <point x="380" y="-4"/>
      <point x="407" y="-8"/>
      <point x="440" y="-8" type="curve" smooth="yes"/>
      <point x="546" y="-8"/>
      <point x="660" y="50"/>
      <point x="660" y="218" type="curve" smooth="yes"/>
      <point x="660" y="361"/>
      <point x="579" y="427"/>
      <point x="417" y="438" type="curve"/>
      <point x="471" y="420" type="line"/>
      <point x="471" y="454" type="line"/>
    </contour>
  </outline>
</glyph>
<glyph name="eth" format="2">
  <advance width="696"/>
  <unicode hex="00F0"/>
  <outline>
    <contour>
      <point x="585" y="422" type="line"/>
      <point x="535" y="509"/>
      <point x="465" y="554"/>
      <point x="350" y="554" type="curve" smooth="yes"/>
      <point x="191" y="554"/>
      <point x="62" y="450"/>
      <point x="62" y="271" type="curve" smooth="yes"/>
      <point x="62" y="88"/>
      <point x="180" y="-13"/>
      <point x="349" y="-13" type="curve" smooth="yes"/>
      <point x="516" y="-13"/>
      <point x="634" y="96"/>
      <point x="634" y="343" type="curve"/>
      <point x="634" y="645"/>
      <point x="494" y="736"/>
      <point x="244" y="813" type="curve"/>
      <point x="230" y="773" type="line"/>
      <point x="485" y="694"/>
      <point x="579" y="611"/>
      <point x="579" y="343" type="curve"/>
      <point x="579" y="116"/>
      <point x="497" y="30"/>
      <point x="349" y="30" type="curve" smooth="yes"/>
      <point x="198" y="30"/>
      <point x="118" y="124"/>
      <point x="118" y="271" type="curve" smooth="yes"/>
      <point x="118" y="426"/>
      <point x="200" y="511"/>
      <point x="350" y="511" type="curve" smooth="yes"/>
      <point x="461" y="511"/>
      <point x="531" y="465"/>
      <point x="598" y="364" type="curve"/>
    </contour>
    <contour>
      <point x="210" y="624" type="line"/>
      <point x="221" y="587" type="line"/>
      <point x="630" y="722" type="line"/>
      <point x="619" y="758" type="line"/>
    </contour>
  </outline>
</glyph>
<glyph name="eogonek" format="2">
  <advance width="677"/>
  <unicode hex="0119"/>
  <outline>
    <contour>
      <point x="384" y="-252" type="curve" smooth="yes"/>
      <point x="446" y="-252"/>
      <point x="493" y="-223"/>
      <point x="529" y="-183" type="curve"/>
      <point x="501" y="-156" type="line"/>
      <point x="475" y="-183"/>
      <point x="443" y="-214"/>
      <point x="392" y="-214" type="curve" smooth="yes"/>
      <point x="346" y="-214"/>
      <point x="326" y="-194"/>
      <point x="326" y="-158" type="curve" smooth="yes"/>
      <point x="326" y="-90"/>
      <point x="385" y="-56"/>
      <point x="500" y="14" type="curve" smooth="yes"/>
      <point x="546" y="42"/>
      <point x="587" y="69"/>
      <point x="614" y="104" type="curve"/>
      <point x="580" y="133" type="line"/>
      <point x="536" y="83"/>
      <point x="482" y="32"/>
      <point x="354" y="32" type="curve" smooth="yes"/>
      <point x="214" y="32"/>
      <point x="118" y="106"/>
      <point x="118" y="276" type="curve" smooth="yes"/>
      <point x="118" y="435"/>
      <point x="200" y="532"/>
      <point x="348" y="532" type="curve" smooth="yes"/>
      <point x="496" y="532"/>
      <point x="552" y="459"/>
      <point x="554" y="293" type="curve"/>
      <point x="570" y="307" type="line"/>
      <point x="92" y="307" type="line"/>
      <point x="92" y="267" type="line"/>
      <point x="608" y="267" type="line"/>
      <point x="612" y="462"/>
      <point x="538" y="575"/>
      <point x="350" y="575" type="curve" smooth="yes"/>
      <point x="176" y="575"/>
      <point x="62" y="446"/>
      <point x="62" y="276" type="curve" smooth="yes"/>
      <point x="62" y="93"/>
      <point x="172" y="-12"/>
      <point x="352" y="-12" type="curve" smooth="yes"/>
      <point x="402" y="-12"/>
      <point x="423" y="-7"/>
      <point x="464" y="1" type="curve"/>
      <point x="473" y="36" type="line"/>
      <point x="305" y="-67"/>
      <point x="269" y="-99"/>
      <point x="269" y="-161" type="curve" smooth="yes"/>
      <point x="269" y="-219"/>
      <point x="310" y="-252"/>
    </contour>
  </outline>
</glyph>
<glyph name="circumflex" format="2">
  <advance width="530"/>
  <unicode hex="02C6"/>
  <anchor x="271.5" y="565" name="_top"/>
  <outline>
    <contour>
      <point x="301.0" y="828" type="line"/>
      <point x="434.0" y="677" type="line"/>
      <point x="434.0" y="656" type="line"/>
      <point x="413.0" y="656" type="line"/>
      <point x="255.0" y="783" type="line"/>
      <point x="276.0" y="782" type="line"/>
      <point x="131.0" y="656" type="line"/>
      <point x="109.0" y="656" type="line"/>
      <point x="109.0" y="677" type="line"/>
      <point x="241.0" y="828" type="line"/>
    </contour>
  </outline>
</glyph>
<glyph name="Delta" format="2">
  <advance width="749"/>
  <unicode hex="0394"/>
  <outline>
    <contour>
      <point x="50" y="0" type="line"/>
      <point x="699" y="0" type="line"/>
      <point x="699" y="40" type="line"/>
      <point x="411" y="710" type="line"/>
      <point x="338" y="710" type="line"/>
      <point x="50" y="40" type="line"/>
    </contour>
    <contour>
      <point x="657" y="12" type="line"/>
      <point x="670" y="46" type="line"/>
      <point x="60" y="46" type="line"/>
      <point x="78" y="-2" type="line"/>
      <point x="376" y="697" type="line"/>
      <point x="363" y="701" type="line"/>
    </contour>
  </outline>
</glyph>
<glyph name="peseta" format="2">
  <advance width="680"/>
  <unicode hex="20A7"/>
  <outline>
    <contour>
      <point x="30" y="0" type="line"/>
      <point x="217" y="0" type="line"/>
      <point x="217" y="40" type="line"/>
      <point x="186" y="40" type="line" smooth="yes"/>
      <point x="167" y="40"/>
      <point x="135" y="43"/>
      <point x="135" y="50" type="curve" smooth="yes"/>
      <point x="135" y="250" type="line"/>
      <point x="184" y="250" type="line" smooth="yes"/>
      <point x="319.0" y="250.0"/>
      <point x="392" y="350"/>
      <point x="392" y="486" type="curve" smooth="yes"/>
      <point x="392" y="622"/>
      <point x="323.0" y="710.0"/>
      <point x="189" y="710" type="curve" smooth="yes"/>
      <point x="30" y="710" type="line"/>
      <point x="30" y="670" type="line"/>
      <point x="36" y="670" type="line"/>
      <point x="69" y="670"/>
      <point x="85" y="663"/>
      <point x="85" y="634" type="curve"/>
      <point x="85" y="76" type="line" smooth="yes"/>
      <point x="85" y="47"/>
      <point x="69" y="40"/>
      <point x="36" y="40" type="curve" smooth="yes"/>
      <point x="30" y="40" type="line"/>
    </contour>
    <contour>
      <point x="188" y="672" type="line" smooth="yes"/>
      <point x="296.0" y="672.0"/>
      <point x="340" y="600"/>
      <point x="340" y="485" type="curve" smooth="yes"/>
      <point x="340" y="370"/>
      <point x="295.0" y="288.0"/>
      <point x="182" y="288" type="curve" smooth="yes"/>
      <point x="135" y="288" type="line"/>
      <point x="135" y="672" type="line"/>
    </contour>
    <contour>
      <point x="513" y="555" type="line"/>
      <point x="476" y="539" type="line"/>
      <point x="476" y="93" type="line" smooth="yes"/>
      <point x="476" y="17"/>
      <point x="513" y="-12"/>
      <point x="587" y="-12" type="curve" smooth="yes"/>
      <point x="608" y="-12"/>
      <point x="626" y="-10"/>
      <point x="636" y="-8" type="curve"/>
      <point x="636" y="32" type="line"/>
      <point x="631" y="31"/>
      <point x="609" y="29"/>
      <point x="591" y="29" type="curve" smooth="yes"/>
      <point x="547" y="29"/>
      <point x="524.0" y="42.0"/>
      <point x="524" y="93" type="curve" smooth="yes"/>
      <point x="524" y="690" type="line"/>
      <point x="486" y="690" type="line"/>
      <point x="486" y="623" type="line" smooth="yes"/>
      <point x="486" y="562"/>
      <point x="467" y="550"/>
      <point x="429" y="550" type="curve" smooth="yes"/>
      <point x="364" y="550" type="line"/>
      <point x="364" y="515" type="line"/>
      <point x="644" y="515" type="line"/>
      <point x="644" y="555" type="line"/>
    </contour>
  </outline>
</glyph>
<glyph name="dong" format="2">
  <advance width="680"/>
  <unicode hex="20AB"/>
  <outline>
    <contour>
      <point x="126" y="277" type="curve" smooth="yes"/>
      <point x="126" y="445"/>
      <point x="190" y="530"/>
      <point x="302" y="530" type="curve" smooth="yes"/>
      <point x="394" y="530"/>
      <point x="438" y="469"/>
      <point x="474" y="391" type="curve"/>
      <point x="486" y="438" type="line"/>
      <point x="447" y="526"/>
      <point x="378" y="575"/>
      <point x="302" y="575" type="curve" smooth="yes"/>
      <point x="152" y="575"/>
      <point x="72" y="453"/>
      <point x="72" y="277" type="curve" smooth="yes"/>
      <point x="72" y="101"/>
      <point x="129" y="-13"/>
      <point x="274" y="-13" type="curve" smooth="yes"/>
      <point x="353" y="-13"/>
      <point x="419" y="34"/>
      <point x="482" y="134" type="curve"/>
      <point x="479" y="147"/>
      <point x="477" y="160"/>
      <point x="474" y="173" type="curve"/>
      <point x="410" y="82"/>
      <point x="359" y="32"/>
      <point x="282" y="32" type="curve" smooth="yes"/>
      <point x="168" y="32"/>
      <point x="126" y="117"/>
    </contour>
    <contour>
      <point x="472" y="780" type="line"/>
      <point x="472" y="147" type="line"/>
      <point x="471" y="140" type="line"/>
      <point x="488" y="0" type="line"/>
      <point x="607" y="0" type="line"/>
      <point x="607" y="38" type="line"/>
      <point x="580" y="43" type="line" smooth="yes"/>
      <point x="530" y="52"/>
      <point x="520" y="57"/>
      <point x="520" y="87" type="curve" smooth="yes"/>
      <point x="520" y="780" type="line"/>
    </contour>
    <contour>
      <point x="109" y="-135" type="line"/>
      <point x="109" y="-174" type="line"/>
      <point x="591" y="-174" type="line"/>
      <point x="591" y="-135" type="line"/>
    </contour>
    <contour>
      <point x="243" y="707" type="line"/>
      <point x="243" y="668" type="line"/>
      <point x="598" y="668" type="line"/>
      <point x="598" y="707" type="line"/>
    </contour>
  </outline>
</glyph>
<glyph name="uni20B8" format="2">
  <advance width="680"/>
  <unicode hex="20B8"/>
  <outline>
    <contour>
      <point x="49" y="728" type="line"/>
      <point x="49" y="692" type="line"/>
      <point x="545" y="692" type="line"/>
      <point x="545" y="728" type="line"/>
    </contour>
    <contour>
      <point x="49" y="540" type="line"/>
      <point x="49" y="329" type="line"/>
      <point x="88" y="329" type="line"/>
      <point x="102" y="445" type="line" smooth="yes"/>
      <point x="106" y="481"/>
      <point x="143" y="498"/>
      <point x="233" y="498" type="curve" smooth="yes"/>
      <point x="273" y="498" type="line"/>
      <point x="273" y="76" type="line" smooth="yes"/>
      <point x="273" y="47"/>
      <point x="230" y="40"/>
      <point x="178" y="40" type="curve" smooth="yes"/>
      <point x="157" y="40" type="line"/>
      <point x="157" y="0" type="line"/>
      <point x="437" y="0" type="line"/>
      <point x="437" y="40" type="line"/>
      <point x="416" y="40" type="line" smooth="yes"/>
      <point x="365" y="40"/>
      <point x="321" y="47"/>
      <point x="321" y="76" type="curve" smooth="yes"/>
      <point x="321" y="498" type="line"/>
      <point x="361" y="498" type="line" smooth="yes"/>
      <point x="451.0" y="498.0"/>
      <point x="487" y="481"/>
      <point x="491" y="445" type="curve" smooth="yes"/>
      <point x="505" y="329" type="line"/>
      <point x="544" y="329" type="line"/>
      <point x="544" y="540" type="line"/>
    </contour>
  </outline>
</glyph>
<glyph name="blackdiamond" format="2">
  <advance width="629"/>
  <outline>
    <contour>
      <point x="576" y="313" type="line"/>
      <point x="315" y="574" type="line"/>
      <point x="53" y="313" type="line"/>
      <point x="315" y="52" type="line"/>
    </contour>
  </outline>
</glyph>
<glyph name="blacktriangle" format="2">
  <advance width="607"/>
  <outline>
    <contour>
      <point x="138" y="50" type="line"/>
      <point x="533" y="307" type="line"/>
      <point x="138" y="565" type="line"/>
    </contour>
  </outline>
</glyph>
<glyph name="braceleft.uc" format="2">
  <advance width="467"/>
  <outline>
    <contour>
      <point x="323" y="246" type="curve" smooth="yes"/>
      <point x="323.0" y="282"/>
      <point x="291" y="290"/>
      <point x="133" y="321.0" type="curve"/>
      <point x="133" y="334.0" type="line"/>
      <point x="291" y="365"/>
      <point x="323.0" y="373"/>
      <point x="323" y="409" type="curve" smooth="yes"/>
      <point x="323" y="471"/>
      <point x="186" y="528"/>
      <point x="186" y="624" type="curve" smooth="yes"/>
      <point x="186" y="683"/>
      <point x="224" y="710"/>
      <point x="376" y="710" type="curve"/>
      <point x="373" y="752" type="line"/>
      <point x="214" y="755"/>
      <point x="136" y="718"/>
      <point x="136" y="622" type="curve" smooth="yes"/>
      <point x="136" y="522"/>
      <point x="229" y="473"/>
      <point x="288" y="394" type="curve"/>
      <point x="291" y="408" type="line"/>
      <point x="97" y="353" type="line"/>
      <point x="97" y="302" type="line"/>
      <point x="291" y="247" type="line"/>
      <point x="288" y="261" type="line"/>
      <point x="239" y="178"/>
      <point x="136" y="130"/>
      <point x="136" y="30" type="curve" smooth="yes"/>
      <point x="136" y="-66"/>
      <point x="214" y="-100"/>
      <point x="373" y="-97" type="curve"/>
      <point x="376" y="-55" type="line"/>
      <point x="224" y="-55"/>
      <point x="186" y="-28"/>
      <point x="186" y="31" type="curve" smooth="yes"/>
      <point x="186" y="127"/>
      <point x="323" y="184"/>
    </contour>
  </outline>
</glyph>
<glyph name="breve_acute.uc" format="2">
  <advance width="574"/>
  <anchor x="265.0" y="740" name="_top"/>
  <outline>
    <contour>
      <point x="327" y="1077" type="curve" smooth="yes"/>
      <point x="232" y="993" type="line"/>
      <point x="232" y="972" type="line"/>
      <point x="256" y="972" type="line"/>
      <point x="394" y="1047" type="line" smooth="yes"/>
      <point x="427" y="1064"/>
      <point x="449" y="1074"/>
      <point x="449" y="1098" type="curve" smooth="yes"/>
      <point x="449" y="1118"/>
      <point x="435" y="1133"/>
      <point x="411" y="1133" type="curve" smooth="yes"/>
      <point x="378" y="1133"/>
      <point x="358" y="1106"/>
    </contour>
    <component base="breve.uc"/>
  </outline>
</glyph>
<glyph name="breve_grave.uc" format="2">
  <advance width="575"/>
  <anchor x="265.0" y="740" name="_top"/>
  <outline>
    <contour>
      <point x="198" y="1077" type="curve" smooth="yes"/>
      <point x="293" y="993" type="line"/>
      <point x="293" y="972" type="line"/>
      <point x="269" y="972" type="line"/>
      <point x="131" y="1047" type="line" smooth="yes"/>
      <point x="98" y="1064"/>
      <point x="76" y="1074"/>
      <point x="76" y="1098" type="curve" smooth="yes"/>
      <point x="76" y="1118"/>
      <point x="90" y="1133"/>
      <point x="114" y="1133" type="curve" smooth="yes"/>
      <point x="147" y="1133"/>
      <point x="167" y="1106"/>
    </contour>
    <component base="breve.uc"/>
  </outline>
</glyph>
<glyph name="circumflex_grave" format="2">
  <advance width="640"/>
  <anchor x="271.5" y="565" name="_top"/>
  <outline>
    <contour>
      <point x="470" y="928" type="line" smooth="yes"/>
      <point x="446" y="963"/>
      <point x="432" y="989"/>
      <point x="401" y="989" type="curve" smooth="yes"/>
      <point x="380" y="989"/>
      <point x="367" y="978"/>
      <point x="367" y="960" type="curve" smooth="yes"/>
      <point x="367" y="938"/>
      <point x="383" y="923"/>
      <point x="410" y="899" type="curve" smooth="yes"/>
      <point x="521" y="801" type="line"/>
      <point x="544" y="801" type="line"/>
      <point x="544" y="820" type="line"/>
    </contour>
    <component base="circumflex"/>
  </outline>
</glyph>
<glyph name="circumflex_tilde" format="2">
  <advance width="530"/>
  <anchor x="264.0" y="565" name="_top"/>
  <outline>
    <contour>
      <point x="336.0" y="879" type="curve" smooth="yes"/>
      <point x="386.0" y="879"/>
      <point x="414.0" y="902"/>
      <point x="440.0" y="1014" type="curve"/>
      <point x="396.0" y="1024" type="line"/>
      <point x="380.0" y="961"/>
      <point x="368.0" y="925"/>
      <point x="338.0" y="925" type="curve" smooth="yes"/>
      <point x="289.0" y="925"/>
      <point x="279.0" y="1019"/>
      <point x="196.0" y="1019" type="curve" smooth="yes"/>
      <point x="141.0" y="1019"/>
      <point x="109.0" y="991"/>
      <point x="88.0" y="888" type="curve"/>
      <point x="133.0" y="878" type="line"/>
      <point x="148.0" y="941"/>
      <point x="160.0" y="972"/>
      <point x="190.0" y="972" type="curve" smooth="yes"/>
      <point x="242.0" y="972"/>
      <point x="254.0" y="879"/>
    </contour>
    <contour>
      <point x="293.5" y="816" type="line"/>
      <point x="426.5" y="677" type="line"/>
      <point x="426.5" y="656" type="line"/>
      <point x="405.5" y="656" type="line"/>
      <point x="247.5" y="772" type="line"/>
      <point x="269.5" y="770" type="line"/>
      <point x="123.5" y="656" type="line"/>
      <point x="101.5" y="656" type="line"/>
      <point x="101.5" y="677" type="line"/>
      <point x="233.5" y="816" type="line"/>
    </contour>
  </outline>
</glyph>
<glyph name="colonmonetary.proportional" format="2">
  <advance width="707"/>
  <outline>
    <contour>
      <point x="413" y="700" type="curve"/>
      <point x="195.0" y="700.0"/>
      <point x="54" y="574"/>
      <point x="54" y="350" type="curve" smooth="yes"/>
      <point x="54" y="117"/>
      <point x="182" y="10"/>
      <point x="366" y="10" type="curve"/>
      <point x="529" y="10"/>
      <point x="621" y="97"/>
      <point x="659" y="226" type="curve"/>
      <point x="613" y="240" type="line"/>
      <point x="574" y="126"/>
      <point x="512" y="53"/>
      <point x="364" y="53" type="curve"/>
      <point x="213" y="53"/>
      <point x="110" y="161"/>
      <point x="110" y="350" type="curve" smooth="yes"/>
      <point x="110" y="538"/>
      <point x="221" y="657"/>
      <point x="413" y="657" type="curve"/>
      <point x="498.0" y="657.0"/>
      <point x="579" y="633"/>
      <point x="628" y="600" type="curve"/>
      <point x="634" y="613"/>
      <point x="621" y="629"/>
      <point x="607" y="639" type="curve"/>
      <point x="607" y="502" type="line"/>
      <point x="659" y="502" type="line"/>
      <point x="659" y="639" type="line"/>
      <point x="609" y="673"/>
      <point x="510" y="700"/>
    </contour>
    <contour>
      <point x="360" y="790" type="line"/>
      <point x="338" y="687" type="line"/>
      <point x="339" y="682" type="line"/>
      <point x="201" y="54" type="line"/>
      <point x="197" y="46" type="line"/>
      <point x="161" y="-120" type="line"/>
      <point x="204" y="-120" type="line"/>
      <point x="238" y="37" type="line"/>
      <point x="236" y="44" type="line"/>
      <point x="377" y="685" type="line"/>
      <point x="382" y="690" type="line"/>
      <point x="403" y="790" type="line"/>
    </contour>
    <contour>
      <point x="516" y="790" type="line"/>
      <point x="492" y="677" type="line"/>
      <point x="493" y="667" type="line"/>
      <point x="350" y="29" type="line"/>
      <point x="347" y="25" type="line"/>
      <point x="316" y="-120" type="line"/>
      <point x="360" y="-120" type="line"/>
      <point x="392" y="28" type="line"/>
      <point x="389" y="32" type="line"/>
      <point x="527" y="653" type="line"/>
      <point x="533" y="663" type="line"/>
      <point x="559" y="790" type="line"/>
    </contour>
  </outline>
</glyph>
<glyph name="dollar.alt" format="2">
  <advance width="680"/>
  <outline>
    <contour>
      <point x="291" y="818" type="line"/>
      <point x="291" y="680" type="line"/>
      <point x="333" y="680" type="line"/>
      <point x="333" y="818" type="line"/>
    </contour>
    <contour>
      <point x="291" y="29" type="line"/>
      <point x="291" y="-150" type="line"/>
      <point x="333" y="-150" type="line"/>
      <point x="333" y="29" type="line"/>
    </contour>
    <contour>
      <point x="314" y="52" type="curve" smooth="yes"/>
      <point x="200" y="52"/>
      <point x="119" y="89"/>
      <point x="75" y="120" type="curve"/>
      <point x="54" y="120"/>
      <point x="63" y="94"/>
      <point x="91" y="80" type="curve"/>
      <point x="91" y="236" type="line"/>
      <point x="39" y="236" type="line"/>
      <point x="39" y="83" type="line"/>
      <point x="92" y="53"/>
      <point x="180" y="10"/>
      <point x="315" y="10" type="curve" smooth="yes"/>
      <point x="481" y="10"/>
      <point x="571" y="74"/>
      <point x="571" y="199" type="curve" smooth="yes"/>
      <point x="571" y="327"/>
      <point x="466" y="360"/>
      <point x="332" y="388" type="curve" smooth="yes"/>
      <point x="170" y="422"/>
      <point x="111" y="439"/>
      <point x="111" y="532" type="curve" smooth="yes"/>
      <point x="111" y="611"/>
      <point x="176" y="656"/>
      <point x="317" y="656" type="curve" smooth="yes"/>
      <point x="405" y="656"/>
      <point x="483" y="627"/>
      <point x="511" y="609" type="curve"/>
      <point x="521" y="611"/>
      <point x="511" y="659"/>
      <point x="492" y="662" type="curve"/>
      <point x="492" y="499" type="line"/>
      <point x="544" y="499" type="line"/>
      <point x="544" y="647" type="line"/>
      <point x="520" y="659"/>
      <point x="446" y="698"/>
      <point x="314" y="698" type="curve" smooth="yes"/>
      <point x="168" y="698"/>
      <point x="61" y="642"/>
      <point x="61" y="526" type="curve" smooth="yes"/>
      <point x="61" y="380"/>
      <point x="192" y="367"/>
      <point x="291" y="345" type="curve" smooth="yes"/>
      <point x="403" y="320"/>
      <point x="521" y="304.0"/>
      <point x="521" y="195.0" type="curve" smooth="yes"/>
      <point x="521" y="106.0"/>
      <point x="461" y="52"/>
    </contour>
  </outline>
</glyph>
<glyph name="dong.proportional" format="2">
  <advance width="689"/>
  <outline>
    <contour>
      <point x="126" y="277" type="curve" smooth="yes"/>
      <point x="126" y="445"/>
      <point x="203" y="530"/>
      <point x="327" y="530" type="curve"/>
      <point x="439" y="530"/>
      <point x="488" y="469"/>
      <point x="534" y="391" type="curve"/>
      <point x="546" y="438" type="line"/>
      <point x="497" y="526"/>
      <point x="424" y="575"/>
      <point x="327" y="575" type="curve"/>
      <point x="165" y="575"/>
      <point x="72" y="453"/>
      <point x="72" y="277" type="curve" smooth="yes"/>
      <point x="72" y="101"/>
      <point x="142" y="-13"/>
      <point x="299" y="-13" type="curve"/>
      <point x="398" y="-13"/>
      <point x="469" y="34"/>
      <point x="542" y="134" type="curve"/>
      <point x="534" y="173" type="line"/>
      <point x="460" y="82"/>
      <point x="404" y="32"/>
      <point x="307" y="32" type="curve"/>
      <point x="181" y="32"/>
      <point x="126" y="117"/>
    </contour>
    <contour>
      <point x="532" y="780" type="line"/>
      <point x="532" y="147" type="line"/>
      <point x="531" y="140" type="line"/>
      <point x="548" y="0" type="line"/>
      <point x="687" y="0" type="line"/>
      <point x="687" y="38" type="line"/>
      <point x="640" y="43" type="line" smooth="yes"/>
      <point x="590" y="48"/>
      <point x="580" y="57"/>
      <point x="580" y="87" type="curve" smooth="yes"/>
      <point x="580" y="780" type="line"/>
    </contour>
    <contour>
      <point x="113" y="-135" type="line"/>
      <point x="113" y="-174" type="line"/>
      <point x="636" y="-174" type="line"/>
      <point x="636" y="-135" type="line"/>
    </contour>
    <contour>
      <point x="249" y="707" type="line"/>
      <point x="249" y="668" type="line"/>
      <point x="650" y="668" type="line"/>
      <point x="650" y="707" type="line"/>
    </contour>
  </outline>
</glyph>
<glyph name="eight.midprop" format="2">
  <advance width="647"/>
  <outline>
    <contour>
      <point x="324" y="33" type="curve" smooth="yes"/>
      <point x="181" y="33"/>
      <point x="108" y="85"/>
      <point x="108" y="192" type="curve" smooth="yes"/>
      <point x="108" y="305"/>
      <point x="189" y="355"/>
      <point x="324" y="355" type="curve" smooth="yes"/>
      <point x="458" y="355"/>
      <point x="539" y="305"/>
      <point x="539" y="192" type="curve" smooth="yes"/>
      <point x="539" y="85"/>
      <point x="466" y="33"/>
    </contour>
    <contour>
      <point x="324" y="398" type="curve" smooth="yes"/>
      <point x="211" y="398"/>
      <point x="143" y="447"/>
      <point x="142" y="541" type="curve" smooth="yes"/>
      <point x="142" y="631"/>
      <point x="196" y="683"/>
      <point x="324" y="683" type="curve" smooth="yes"/>
      <point x="451" y="683"/>
      <point x="505" y="631"/>
      <point x="505" y="541" type="curve" smooth="yes"/>
      <point x="505" y="447"/>
      <point x="446" y="398"/>
    </contour>
    <contour>
      <point x="324" y="726" type="curve" smooth="yes"/>
      <point x="171" y="726"/>
      <point x="88" y="650"/>
      <point x="88" y="545" type="curve" smooth="yes"/>
      <point x="88" y="438"/>
      <point x="156" y="392"/>
      <point x="245" y="380" type="curve"/>
      <point x="207" y="398" type="line"/>
      <point x="207" y="363" type="line"/>
      <point x="245" y="379" type="line"/>
      <point x="134" y="363"/>
      <point x="51" y="298"/>
      <point x="51" y="192" type="curve" smooth="yes"/>
      <point x="51" y="73"/>
      <point x="139" y="-10"/>
      <point x="324" y="-10" type="curve" smooth="yes"/>
      <point x="508" y="-10"/>
      <point x="596" y="73"/>
      <point x="596" y="192" type="curve" smooth="yes"/>
      <point x="596" y="306"/>
      <point x="503" y="363"/>
      <point x="402" y="379" type="curve"/>
      <point x="440" y="363" type="line"/>
      <point x="440" y="398" type="line"/>
      <point x="402" y="380" type="line"/>
      <point x="491" y="392"/>
      <point x="559" y="448"/>
      <point x="559" y="545" type="curve" smooth="yes"/>
      <point x="558" y="650"/>
      <point x="476" y="726"/>
    </contour>
  </outline>
</glyph>
<glyph name="eight.oldprop" format="2">
  <advance width="647"/>
  <outline>
    <contour>
      <point x="324" y="33" type="curve" smooth="yes"/>
      <point x="181" y="33"/>
      <point x="108" y="83"/>
      <point x="108" y="190" type="curve" smooth="yes"/>
      <point x="108" y="303"/>
      <point x="189" y="351"/>
      <point x="324" y="351" type="curve" smooth="yes"/>
      <point x="458" y="351"/>
      <point x="539" y="303"/>
      <point x="539" y="190" type="curve" smooth="yes"/>
      <point x="539" y="83"/>
      <point x="466" y="33"/>
    </contour>
    <contour>
      <point x="324" y="394" type="curve" smooth="yes"/>
      <point x="211" y="394"/>
      <point x="143" y="443"/>
      <point x="142" y="537" type="curve" smooth="yes"/>
      <point x="142" y="627"/>
      <point x="196" y="677"/>
      <point x="324" y="677" type="curve" smooth="yes"/>
      <point x="451" y="677"/>
      <point x="505" y="627"/>
      <point x="505" y="537" type="curve" smooth="yes"/>
      <point x="505" y="443"/>
      <point x="446" y="394"/>
    </contour>
    <contour>
      <point x="324" y="720" type="curve" smooth="yes"/>
      <point x="171" y="720"/>
      <point x="88" y="646"/>
      <point x="88" y="541" type="curve" smooth="yes"/>
      <point x="88" y="434"/>
      <point x="156" y="388"/>
      <point x="245" y="376" type="curve"/>
      <point x="207" y="394" type="line"/>
      <point x="207" y="359" type="line"/>
      <point x="245" y="375" type="line"/>
      <point x="134" y="359"/>
      <point x="51" y="296"/>
      <point x="51" y="190" type="curve" smooth="yes"/>
      <point x="51" y="71"/>
      <point x="139" y="-10"/>
      <point x="324" y="-10" type="curve" smooth="yes"/>
      <point x="508" y="-10"/>
      <point x="596" y="71"/>
      <point x="596" y="190" type="curve" smooth="yes"/>
      <point x="596" y="304"/>
      <point x="503" y="359"/>
      <point x="402" y="375" type="curve"/>
      <point x="440" y="359" type="line"/>
      <point x="440" y="394" type="line"/>
      <point x="402" y="376" type="line"/>
      <point x="491" y="388"/>
      <point x="559" y="444"/>
      <point x="559" y="541" type="curve" smooth="yes"/>
      <point x="558" y="646"/>
      <point x="476" y="720"/>
    </contour>
  </outline>
</glyph>
<glyph name="f_f_k.alt" format="2">
  <advance width="1500"/>
  <outline>
    <contour>
      <point x="1465" y="0" type="line"/>
      <point x="1465" y="39" type="line"/>
      <point x="1449" y="39" type="line" smooth="yes"/>
      <point x="1411" y="39"/>
      <point x="1377" y="45"/>
      <point x="1341" y="77" type="curve" smooth="yes"/>
      <point x="1063" y="318" type="line"/>
      <point x="1066" y="301" type="line"/>
      <point x="1327" y="489" type="line" smooth="yes"/>
      <point x="1372" y="522"/>
      <point x="1400" y="526"/>
      <point x="1435" y="526" type="curve" smooth="yes"/>
      <point x="1445" y="526" type="line"/>
      <point x="1445" y="565" type="line"/>
      <point x="1190" y="565" type="line"/>
      <point x="1190" y="526" type="line"/>
      <point x="1211" y="526" type="line" smooth="yes"/>
      <point x="1253" y="526"/>
      <point x="1294" y="525"/>
      <point x="1300" y="515" type="curve"/>
      <point x="1025" y="312" type="line"/>
      <point x="1025" y="292" type="line"/>
      <point x="1306" y="50" type="line"/>
      <point x="1301" y="43"/>
      <point x="1268" y="39"/>
      <point x="1226" y="39" type="curve" smooth="yes"/>
      <point x="1207" y="39" type="line"/>
      <point x="1207" y="0" type="line"/>
    </contour>
    <contour>
      <point x="56" y="565" type="line"/>
      <point x="56" y="521" type="line"/>
      <point x="459" y="521" type="line"/>
      <point x="459" y="565" type="line"/>
    </contour>
    <contour>
      <point x="428" y="565" type="line"/>
      <point x="428" y="521" type="line"/>
      <point x="831" y="521" type="line"/>
      <point x="831" y="565" type="line"/>
    </contour>
    <contour>
      <point x="830" y="0" type="line"/>
      <point x="1077" y="0" type="line"/>
      <point x="1077" y="39" type="line"/>
      <point x="1060" y="39" type="line" smooth="yes"/>
      <point x="1030" y="39"/>
      <point x="985" y="44"/>
      <point x="985" y="54" type="curve" smooth="yes"/>
      <point x="985" y="780" type="line"/>
      <point x="830" y="780" type="line"/>
      <point x="937" y="745" type="line"/>
      <point x="937" y="57" type="line" smooth="yes"/>
      <point x="937" y="47"/>
      <point x="892" y="39"/>
      <point x="842" y="39" type="curve" smooth="yes"/>
      <point x="830" y="39" type="line"/>
    </contour>
    <contour>
      <point x="613" y="57" type="curve" smooth="yes"/>
      <point x="613" y="616" type="line" smooth="yes"/>
      <point x="613" y="717"/>
      <point x="650" y="748"/>
      <point x="761" y="748" type="curve" smooth="yes"/>
      <point x="826" y="748"/>
      <point x="894" y="738"/>
      <point x="958" y="715" type="curve"/>
      <point x="958" y="758" type="line"/>
      <point x="901" y="779"/>
      <point x="827" y="790"/>
      <point x="762" y="790" type="curve" smooth="yes"/>
      <point x="638" y="790"/>
      <point x="565" y="751"/>
      <point x="565" y="618" type="curve" smooth="yes"/>
      <point x="565" y="57" type="line" smooth="yes"/>
      <point x="565" y="47"/>
      <point x="520" y="39"/>
      <point x="470" y="39" type="curve" smooth="yes"/>
      <point x="455" y="39" type="line"/>
      <point x="455" y="0" type="line"/>
      <point x="733" y="0" type="line"/>
      <point x="733" y="39" type="line"/>
      <point x="708" y="39" type="line" smooth="yes"/>
      <point x="658" y="39"/>
      <point x="613" y="47"/>
    </contour>
    <contour>
      <point x="56" y="0" type="line"/>
      <point x="361" y="0" type="line"/>
      <point x="361" y="39" type="line"/>
      <point x="336" y="39" type="line" smooth="yes"/>
      <point x="286" y="39"/>
      <point x="241" y="47"/>
      <point x="241" y="57" type="curve" smooth="yes"/>
      <point x="241" y="601" type="line" smooth="yes"/>
      <point x="241" y="702"/>
      <point x="278" y="733"/>
      <point x="389" y="733" type="curve" smooth="yes"/>
      <point x="454" y="733"/>
      <point x="522" y="720"/>
      <point x="596" y="687" type="curve"/>
      <point x="596" y="733" type="line"/>
      <point x="529" y="764"/>
      <point x="455" y="775"/>
      <point x="390" y="775" type="curve" smooth="yes"/>
      <point x="266" y="775"/>
      <point x="193" y="736"/>
      <point x="193" y="603" type="curve" smooth="yes"/>
      <point x="193" y="89" type="line" smooth="yes"/>
      <point x="193" y="49"/>
      <point x="163" y="39"/>
      <point x="103" y="39" type="curve" smooth="yes"/>
      <point x="56" y="39" type="line"/>
    </contour>
  </outline>
</glyph>
<glyph name="f_f_l.alt" format="2">
  <advance width="1156"/>
  <outline>
    <contour>
      <point x="56" y="565" type="line"/>
      <point x="56" y="521" type="line"/>
      <point x="459" y="521" type="line"/>
      <point x="459" y="565" type="line"/>
    </contour>
    <contour>
      <point x="428" y="565" type="line"/>
      <point x="428" y="521" type="line"/>
      <point x="831" y="521" type="line"/>
      <point x="831" y="565" type="line"/>
    </contour>
    <contour>
      <point x="733" y="0" type="line"/>
      <point x="733" y="39" type="line"/>
      <point x="708" y="39" type="line" smooth="yes"/>
      <point x="658" y="39"/>
      <point x="613" y="47"/>
      <point x="613" y="57" type="curve" smooth="yes"/>
      <point x="613" y="616" type="line" smooth="yes"/>
      <point x="613" y="717"/>
      <point x="650" y="748"/>
      <point x="761" y="748" type="curve" smooth="yes"/>
      <point x="826" y="748"/>
      <point x="894" y="738"/>
      <point x="958" y="715" type="curve"/>
      <point x="958" y="758" type="line"/>
      <point x="901" y="779"/>
      <point x="827" y="790"/>
      <point x="762" y="790" type="curve" smooth="yes"/>
      <point x="638" y="790"/>
      <point x="565" y="751"/>
      <point x="565" y="618" type="curve" smooth="yes"/>
      <point x="565" y="57" type="line" smooth="yes"/>
      <point x="565" y="47"/>
      <point x="520" y="39"/>
      <point x="470" y="39" type="curve" smooth="yes"/>
      <point x="455" y="39" type="line"/>
      <point x="455" y="0" type="line"/>
    </contour>
    <contour>
      <point x="1100" y="0.0" type="line"/>
      <point x="1100" y="39" type="line"/>
      <point x="1083" y="39" type="line" smooth="yes"/>
      <point x="1023.0" y="39"/>
      <point x="993" y="49"/>
      <point x="993" y="79" type="curve" smooth="yes"/>
      <point x="993" y="780.0" type="line"/>
      <point x="836" y="780.0" type="line"/>
      <point x="945" y="732" type="line"/>
      <point x="945" y="54" type="line" smooth="yes"/>
      <point x="945.0" y="44.0"/>
      <point x="900" y="39"/>
      <point x="870" y="39" type="curve" smooth="yes"/>
      <point x="853" y="39" type="line"/>
      <point x="853" y="0" type="line"/>
    </contour>
    <contour>
      <point x="56" y="0" type="line"/>
      <point x="361" y="0" type="line"/>
      <point x="361" y="39" type="line"/>
      <point x="336" y="39" type="line" smooth="yes"/>
      <point x="286" y="39"/>
      <point x="241" y="47"/>
      <point x="241" y="57" type="curve" smooth="yes"/>
      <point x="241" y="601" type="line" smooth="yes"/>
      <point x="241" y="702"/>
      <point x="278" y="733"/>
      <point x="389" y="733" type="curve" smooth="yes"/>
      <point x="454" y="733"/>
      <point x="522" y="720"/>
      <point x="596" y="687" type="curve"/>
      <point x="596" y="733" type="line"/>
      <point x="529" y="764"/>
      <point x="455" y="775"/>
      <point x="390" y="775" type="curve" smooth="yes"/>
      <point x="266" y="775"/>
      <point x="193" y="736"/>
      <point x="193" y="603" type="curve" smooth="yes"/>
      <point x="193" y="89" type="line" smooth="yes"/>
      <point x="193" y="49"/>
      <point x="163" y="39"/>
      <point x="103" y="39" type="curve" smooth="yes"/>
      <point x="56" y="39" type="line"/>
    </contour>
  </outline>
</glyph>
<glyph name="four.lintab" format="2">
  <advance width="680"/>
  <outline>
    <contour>
      <point x="327" y="0" type="line"/>
      <point x="597" y="0" type="line"/>
      <point x="597" y="40" type="line"/>
      <point x="578" y="40" type="line" smooth="yes"/>
      <point x="518" y="40"/>
      <point x="488" y="50"/>
      <point x="488" y="80" type="curve" smooth="yes"/>
      <point x="488" y="710" type="line"/>
      <point x="430" y="710" type="line"/>
      <point x="440" y="698" type="line"/>
      <point x="440" y="80" type="line" smooth="yes"/>
      <point x="440" y="50"/>
      <point x="410" y="40"/>
      <point x="350" y="40" type="curve" smooth="yes"/>
      <point x="327" y="40" type="line"/>
    </contour>
    <contour>
      <point x="43" y="222" type="line"/>
      <point x="617" y="222" type="line"/>
      <point x="617" y="263" type="line"/>
      <point x="74" y="263" type="line"/>
      <point x="73" y="247" type="line"/>
      <point x="459" y="706" type="line"/>
      <point x="452" y="710" type="line"/>
      <point x="411" y="710" type="line"/>
      <point x="43" y="275" type="line"/>
    </contour>
  </outline>
</glyph>
<glyph name="franc.proportional" format="2">
  <advance width="661"/>
  <outline>
    <contour>
      <point x="245" y="666" type="line"/>
      <point x="415" y="666" type="line" smooth="yes"/>
      <point x="510.0" y="666.0"/>
      <point x="551" y="653"/>
      <point x="555" y="623" type="curve" smooth="yes"/>
      <point x="569" y="517" type="line"/>
      <point x="608" y="517" type="line"/>
      <point x="608" y="710" type="line"/>
      <point x="84" y="710" type="line"/>
      <point x="84" y="670" type="line"/>
      <point x="107" y="670" type="line" smooth="yes"/>
      <point x="167" y="670"/>
      <point x="197" y="660"/>
      <point x="197" y="630" type="curve" smooth="yes"/>
      <point x="197" y="80" type="line" smooth="yes"/>
      <point x="197.0" y="50.0"/>
      <point x="167" y="40"/>
      <point x="107" y="40" type="curve" smooth="yes"/>
      <point x="84" y="40" type="line"/>
      <point x="84" y="0" type="line"/>
      <point x="382" y="0" type="line"/>
      <point x="382" y="40" type="line"/>
      <point x="345" y="40" type="line" smooth="yes"/>
      <point x="315" y="40"/>
      <point x="245.0" y="45.0"/>
      <point x="245" y="55" type="curve" smooth="yes"/>
    </contour>
    <contour>
      <point x="89" y="240" type="line"/>
      <point x="89" y="204" type="line"/>
      <point x="469" y="204" type="line"/>
      <point x="469" y="240" type="line"/>
    </contour>
    <contour>
      <point x="228" y="418" type="curve"/>
      <point x="228" y="385" type="line"/>
      <point x="325" y="381"/>
      <point x="428" y="377"/>
      <point x="516" y="374" type="curve"/>
      <point x="516" y="429" type="line"/>
      <point x="429" y="426"/>
      <point x="326" y="422"/>
    </contour>
  </outline>
</glyph>
<glyph name="liraTurkish.proportional" format="2">
  <advance width="711"/>
  <outline>
    <contour>
      <point x="60" y="420" type="line"/>
      <point x="60" y="382" type="line"/>
      <point x="507" y="572" type="line"/>
      <point x="507" y="610" type="line"/>
    </contour>
    <contour>
      <point x="60" y="228" type="line"/>
      <point x="60" y="190" type="line"/>
      <point x="507" y="380" type="line"/>
      <point x="507" y="418" type="line"/>
    </contour>
    <contour>
      <point x="217" y="634" type="line" smooth="yes"/>
      <point x="217.0" y="663.0"/>
      <point x="257" y="670"/>
      <point x="300" y="670" type="curve" smooth="yes"/>
      <point x="327" y="670" type="line"/>
      <point x="327" y="710" type="line"/>
      <point x="55" y="710" type="line"/>
      <point x="55" y="670" type="line"/>
      <point x="81" y="670" type="line" smooth="yes"/>
      <point x="133" y="670"/>
      <point x="168.0" y="663.0"/>
      <point x="168" y="634" type="curve" smooth="yes"/>
      <point x="168" y="76" type="line" smooth="yes"/>
      <point x="168" y="47"/>
      <point x="133" y="40"/>
      <point x="81" y="40" type="curve" smooth="yes"/>
      <point x="55" y="40" type="line"/>
      <point x="55" y="0" type="line"/>
      <point x="387" y="0" type="line" smooth="yes"/>
      <point x="591.0" y="0.0"/>
      <point x="641" y="96"/>
      <point x="658" y="255" type="curve"/>
      <point x="608" y="263" type="line"/>
      <point x="598" y="137"/>
      <point x="565.0" y="44.0"/>
      <point x="423" y="44" type="curve" smooth="yes"/>
      <point x="217" y="44" type="line"/>
    </contour>
  </outline>
</glyph>
<glyph name="nine.linprop" format="2">
  <advance width="642"/>
  <outline>
    <contour>
      <point x="95" y="30" type="line"/>
      <point x="362" y="53"/>
      <point x="530" y="151"/>
      <point x="530" y="430" type="curve" smooth="yes"/>
      <point x="530" y="615"/>
      <point x="442" y="691"/>
      <point x="312" y="691" type="curve" smooth="yes"/>
      <point x="156" y="691"/>
      <point x="101" y="597"/>
      <point x="101" y="482" type="curve" smooth="yes"/>
      <point x="101" y="376"/>
      <point x="147" y="297"/>
      <point x="281" y="297" type="curve" smooth="yes"/>
      <point x="406" y="297"/>
      <point x="469" y="352"/>
      <point x="552" y="492" type="curve"/>
      <point x="552" y="451" type="line"/>
      <point x="497" y="319"/>
      <point x="404" y="253"/>
      <point x="276" y="253" type="curve" smooth="yes"/>
      <point x="136" y="253"/>
      <point x="47" y="331"/>
      <point x="47" y="482" type="curve" smooth="yes"/>
      <point x="47" y="628"/>
      <point x="140" y="735"/>
      <point x="316" y="735" type="curve" smooth="yes"/>
      <point x="467" y="735"/>
      <point x="580" y="649"/>
      <point x="580" y="430" type="curve" smooth="yes"/>
      <point x="580" y="131"/>
      <point x="384" y="14"/>
      <point x="101" y="-15" type="curve"/>
    </contour>
  </outline>
</glyph>
<glyph name="nine.lintab" format="2">
  <advance width="680"/>
  <outline>
    <contour>
      <point x="115" y="30" type="line"/>
      <point x="382" y="53"/>
      <point x="550" y="151"/>
      <point x="550" y="430" type="curve" smooth="yes"/>
      <point x="550" y="615"/>
      <point x="462" y="691"/>
      <point x="332" y="691" type="curve" smooth="yes"/>
      <point x="176" y="691"/>
      <point x="121" y="597"/>
      <point x="121" y="482" type="curve" smooth="yes"/>
      <point x="121" y="376"/>
      <point x="167" y="297"/>
      <point x="301" y="297" type="curve" smooth="yes"/>
      <point x="426" y="297"/>
      <point x="489" y="352"/>
      <point x="572" y="492" type="curve"/>
      <point x="572" y="451" type="line"/>
      <point x="517" y="319"/>
      <point x="424" y="253"/>
      <point x="296" y="253" type="curve" smooth="yes"/>
      <point x="156" y="253"/>
      <point x="67" y="331"/>
      <point x="67" y="482" type="curve" smooth="yes"/>
      <point x="67" y="628"/>
      <point x="160" y="735"/>
      <point x="336" y="735" type="curve" smooth="yes"/>
      <point x="487" y="735"/>
      <point x="600" y="649"/>
      <point x="600" y="430" type="curve" smooth="yes"/>
      <point x="600" y="131"/>
      <point x="404" y="14"/>
      <point x="121" y="-15" type="curve"/>
    </contour>
  </outline>
</glyph>
<glyph name="nine.midprop" format="2">
  <advance width="628"/>
  <outline>
    <contour>
      <point x="89" y="-23" type="line"/>
      <point x="356" y="0"/>
      <point x="524" y="99"/>
      <point x="524" y="378" type="curve" smooth="yes"/>
      <point x="524" y="563"/>
      <point x="426" y="639"/>
      <point x="301" y="639" type="curve" smooth="yes"/>
      <point x="150" y="639"/>
      <point x="95" y="545"/>
      <point x="95" y="430" type="curve"/>
      <point x="95" y="324"/>
      <point x="132" y="245"/>
      <point x="270" y="245" type="curve" smooth="yes"/>
      <point x="390" y="245"/>
      <point x="463" y="300"/>
      <point x="546" y="440" type="curve"/>
      <point x="546" y="399" type="line"/>
      <point x="491" y="267"/>
      <point x="386" y="201"/>
      <point x="263" y="201" type="curve" smooth="yes"/>
      <point x="119" y="201"/>
      <point x="41" y="279"/>
      <point x="41" y="430" type="curve"/>
      <point x="41" y="576"/>
      <point x="134" y="683"/>
      <point x="305" y="683" type="curve" smooth="yes"/>
      <point x="451" y="683"/>
      <point x="574" y="597"/>
      <point x="574" y="378" type="curve" smooth="yes"/>
      <point x="574" y="79"/>
      <point x="378" y="-39"/>
      <point x="95" y="-68" type="curve"/>
    </contour>
  </outline>
</glyph>
<glyph name="nine.oldprop" format="2">
  <advance width="628"/>
  <outline>
    <contour>
      <point x="89" y="-60" type="line"/>
      <point x="356" y="-37"/>
      <point x="524" y="65"/>
      <point x="524" y="344" type="curve" smooth="yes"/>
      <point x="524" y="529"/>
      <point x="426" y="605"/>
      <point x="301" y="605" type="curve" smooth="yes"/>
      <point x="150" y="605"/>
      <point x="95" y="511"/>
      <point x="95" y="396" type="curve"/>
      <point x="95" y="290"/>
      <point x="132" y="211"/>
      <point x="270" y="211" type="curve" smooth="yes"/>
      <point x="390" y="211"/>
      <point x="463" y="266"/>
      <point x="546" y="406" type="curve"/>
      <point x="546" y="365" type="line"/>
      <point x="491" y="233"/>
      <point x="386" y="167"/>
      <point x="263" y="167" type="curve" smooth="yes"/>
      <point x="119" y="167"/>
      <point x="41" y="245"/>
      <point x="41" y="396" type="curve"/>
      <point x="41" y="542"/>
      <point x="134" y="649"/>
      <point x="305" y="649" type="curve" smooth="yes"/>
      <point x="451" y="649"/>
      <point x="574" y="563"/>
      <point x="574" y="344" type="curve" smooth="yes"/>
      <point x="574" y="45"/>
      <point x="378" y="-76"/>
      <point x="95" y="-105" type="curve"/>
    </contour>
  </outline>
</glyph>
<glyph name="nine.prop" format="2">
  <advance width="628"/>
  <outline>
    <contour>
      <point x="89" y="-60" type="line"/>
      <point x="356" y="-37"/>
      <point x="524" y="65"/>
      <point x="524" y="344" type="curve" smooth="yes"/>
      <point x="524" y="529"/>
      <point x="426" y="605"/>
      <point x="301" y="605" type="curve" smooth="yes"/>
      <point x="150" y="605"/>
      <point x="95" y="511"/>
      <point x="95" y="396" type="curve"/>
      <point x="95" y="290"/>
      <point x="132" y="211"/>
      <point x="270" y="211" type="curve" smooth="yes"/>
      <point x="390" y="211"/>
      <point x="463" y="266"/>
      <point x="546" y="406" type="curve"/>
      <point x="546" y="365" type="line"/>
      <point x="491" y="233"/>
      <point x="386" y="167"/>
      <point x="263" y="167" type="curve" smooth="yes"/>
      <point x="119" y="167"/>
      <point x="41" y="245"/>
      <point x="41" y="396" type="curve"/>
      <point x="41" y="542"/>
      <point x="134" y="649"/>
      <point x="305" y="649" type="curve" smooth="yes"/>
      <point x="451" y="649"/>
      <point x="574" y="563"/>
      <point x="574" y="344" type="curve" smooth="yes"/>
      <point x="574" y="45"/>
      <point x="378" y="-76"/>
      <point x="95" y="-105" type="curve"/>
    </contour>
  </outline>
</glyph>
<glyph name="one.midprop" format="2">
  <advance width="539"/>
  <outline>
    <contour>
      <point x="339" y="80" type="curve" smooth="yes"/>
      <point x="339" y="675" type="line"/>
      <point x="296" y="675" type="line"/>
      <point x="268" y="594"/>
      <point x="185" y="568"/>
      <point x="94" y="565" type="curve"/>
      <point x="94" y="516" type="line"/>
      <point x="176" y="516"/>
      <point x="289" y="558"/>
      <point x="307" y="630" type="curve"/>
      <point x="299" y="633"/>
      <point x="302" y="616"/>
      <point x="291" y="616" type="curve"/>
      <point x="291" y="80" type="line" smooth="yes"/>
      <point x="291" y="50"/>
      <point x="269" y="40"/>
      <point x="201" y="40" type="curve" smooth="yes"/>
      <point x="111" y="40" type="line"/>
      <point x="111" y="0" type="line"/>
      <point x="490" y="0" type="line"/>
      <point x="490" y="40" type="line"/>
      <point x="429" y="40" type="line" smooth="yes"/>
      <point x="369" y="40"/>
      <point x="339" y="50"/>
    </contour>
  </outline>
</glyph>
<glyph name="peso.proportional" format="2">
  <advance width="692"/>
  <outline>
    <contour>
      <point x="59" y="0" type="line"/>
      <point x="328" y="0" type="line"/>
      <point x="328" y="40" type="line"/>
      <point x="291" y="40" type="line" smooth="yes"/>
      <point x="259" y="40"/>
      <point x="220.0" y="43.0"/>
      <point x="220" y="50" type="curve" smooth="yes"/>
      <point x="220" y="216" type="line"/>
      <point x="323" y="216" type="line" smooth="yes"/>
      <point x="490.0" y="216.0"/>
      <point x="583" y="310"/>
      <point x="583" y="469" type="curve" smooth="yes"/>
      <point x="583" y="633"/>
      <point x="487" y="710"/>
      <point x="330" y="710" type="curve" smooth="yes"/>
      <point x="59" y="710" type="line"/>
      <point x="59" y="670" type="line"/>
      <point x="91" y="670" type="line" smooth="yes"/>
      <point x="131.0" y="670.0"/>
      <point x="171" y="663"/>
      <point x="171" y="634" type="curve" smooth="yes"/>
      <point x="171" y="76" type="line" smooth="yes"/>
      <point x="171.0" y="47.0"/>
      <point x="131.0" y="40.0"/>
      <point x="91" y="40" type="curve" smooth="yes"/>
      <point x="59" y="40" type="line"/>
    </contour>
    <contour>
      <point x="329" y="670" type="line" smooth="yes"/>
      <point x="478.0" y="670.0"/>
      <point x="533" y="601"/>
      <point x="533" y="468" type="curve" smooth="yes"/>
      <point x="533" y="336"/>
      <point x="478.0" y="256.0"/>
      <point x="324" y="256" type="curve" smooth="yes"/>
      <point x="220" y="256" type="line"/>
      <point x="220" y="670" type="line"/>
    </contour>
    <contour>
      <point x="70" y="487" type="line"/>
      <point x="70" y="448" type="line"/>
      <point x="201" y="448" type="line"/>
      <point x="202" y="450" type="line"/>
      <point x="553" y="450" type="line"/>
      <point x="560" y="448" type="line"/>
      <point x="665" y="448" type="line"/>
      <point x="665" y="487" type="line"/>
      <point x="562" y="487" type="line"/>
      <point x="547" y="485" type="line"/>
      <point x="199" y="485" type="line"/>
      <point x="196" y="487" type="line"/>
    </contour>
  </outline>
</glyph>
<glyph name="ringhalfleft" format="2">
  <advance width="530"/>
  <anchor x="250" y="566" name="_top"/>
  <outline>
    <contour>
      <point x="253" y="679" type="line"/>
      <point x="208" y="679"/>
      <point x="175" y="702"/>
      <point x="175" y="753" type="curve" smooth="yes"/>
      <point x="175" y="804"/>
      <point x="208" y="827"/>
      <point x="253" y="827" type="curve"/>
      <point x="253" y="862" type="line"/>
      <point x="179" y="862"/>
      <point x="130" y="817"/>
      <point x="130" y="753" type="curve" smooth="yes"/>
      <point x="130" y="689"/>
      <point x="179" y="644"/>
      <point x="253" y="644" type="curve"/>
    </contour>
  </outline>
</glyph>
<glyph name="sterling.alt" format="2">
  <advance width="680"/>
  <outline>
    <contour>
      <point x="47" y="0" type="line"/>
      <point x="546" y="0" type="line"/>
      <point x="546" y="175" type="line"/>
      <point x="507" y="175" type="line"/>
      <point x="490" y="89" type="line" smooth="yes"/>
      <point x="483" y="54"/>
      <point x="443.0" y="44.0"/>
      <point x="352" y="44" type="curve" smooth="yes"/>
      <point x="77" y="44" type="line"/>
      <point x="82" y="21" type="line"/>
      <point x="202" y="79"/>
      <point x="261" y="148"/>
      <point x="261" y="249" type="curve"/>
      <point x="261" y="400"/>
      <point x="167" y="452"/>
      <point x="167" y="565" type="curve"/>
      <point x="167" y="653"/>
      <point x="233" y="692"/>
      <point x="336" y="692" type="curve" smooth="yes"/>
      <point x="402" y="692"/>
      <point x="451" y="680"/>
      <point x="490" y="653" type="curve"/>
      <point x="486" y="672"/>
      <point x="479" y="704"/>
      <point x="463" y="706" type="curve"/>
      <point x="463" y="562" type="line"/>
      <point x="512" y="562" type="line"/>
      <point x="512" y="693" type="line"/>
      <point x="479" y="712"/>
      <point x="429" y="735"/>
      <point x="336" y="735" type="curve" smooth="yes"/>
      <point x="205" y="735"/>
      <point x="115" y="681"/>
      <point x="115" y="557" type="curve"/>
      <point x="115" y="443"/>
      <point x="214" y="387"/>
      <point x="214" y="246" type="curve"/>
      <point x="214" y="142"/>
      <point x="142" y="83"/>
      <point x="47" y="34" type="curve"/>
    </contour>
    <contour>
      <point x="51" y="363" type="line"/>
      <point x="51" y="324" type="line"/>
      <point x="454" y="324" type="line"/>
      <point x="454" y="363" type="line"/>
    </contour>
  </outline>
</glyph>
<glyph name="three.midprop" format="2">
  <advance width="679"/>
  <outline>
    <contour>
      <point x="374" y="332" type="line"/>
      <point x="558" y="321"/>
      <point x="603" y="252"/>
      <point x="603" y="157" type="curve" smooth="yes"/>
      <point x="603" y="27"/>
      <point x="497" y="-55"/>
      <point x="336" y="-55" type="curve" smooth="yes"/>
      <point x="177" y="-55"/>
      <point x="94" y="7"/>
      <point x="54" y="105" type="curve"/>
      <point x="105" y="128" type="line"/>
      <point x="138" y="54"/>
      <point x="191" y="-10"/>
      <point x="336" y="-10" type="curve" smooth="yes"/>
      <point x="476" y="-10"/>
      <point x="544" y="48"/>
      <point x="544" y="155" type="curve" smooth="yes"/>
      <point x="544" y="253"/>
      <point x="502" y="309"/>
      <point x="318" y="309" type="curve" smooth="yes"/>
      <point x="225" y="309" type="line"/>
      <point x="225" y="353" type="line"/>
      <point x="303" y="353" type="line" smooth="yes"/>
      <point x="451" y="353"/>
      <point x="520" y="410"/>
      <point x="520" y="506" type="curve" smooth="yes"/>
      <point x="520" y="604"/>
      <point x="456" y="639"/>
      <point x="352" y="639" type="curve" smooth="yes"/>
      <point x="253" y="639"/>
      <point x="194" y="619"/>
      <point x="148" y="587" type="curve"/>
      <point x="133" y="593"/>
      <point x="142" y="621"/>
      <point x="174" y="625" type="curve"/>
      <point x="174" y="478" type="line"/>
      <point x="122" y="478" type="line"/>
      <point x="122" y="626" type="line"/>
      <point x="153" y="647"/>
      <point x="232" y="683"/>
      <point x="351" y="683" type="curve" smooth="yes"/>
      <point x="495" y="683"/>
      <point x="573" y="629"/>
      <point x="573" y="517" type="curve" smooth="yes"/>
      <point x="573" y="418"/>
      <point x="508" y="350"/>
      <point x="379" y="336" type="curve"/>
      <point x="404" y="347" type="line"/>
      <point x="404" y="317" type="line"/>
    </contour>
  </outline>
</glyph>
<glyph name="two.prop" format="2">
  <advance width="619"/>
  <outline>
    <contour>
      <point x="390" y="45" type="line" smooth="yes"/>
      <point x="484.0" y="45.0"/>
      <point x="515" y="53"/>
      <point x="520" y="88" type="curve" smooth="yes"/>
      <point x="532" y="175" type="line"/>
      <point x="571" y="175" type="line"/>
      <point x="571" y="0.0" type="line"/>
      <point x="58" y="0" type="line"/>
      <point x="58" y="44" type="line"/>
      <point x="367" y="254"/>
      <point x="491" y="312"/>
      <point x="491" y="464" type="curve" smooth="yes"/>
      <point x="491" y="564"/>
      <point x="427" y="605"/>
      <point x="323" y="605" type="curve" smooth="yes"/>
      <point x="230" y="605"/>
      <point x="171" y="579"/>
      <point x="124" y="552" type="curve"/>
      <point x="120" y="572"/>
      <point x="147" y="600"/>
      <point x="147" y="590" type="curve" smooth="yes"/>
      <point x="147" y="427" type="line"/>
      <point x="95" y="427" type="line"/>
      <point x="95" y="587" type="line"/>
      <point x="149" y="620"/>
      <point x="230" y="649"/>
      <point x="326" y="649" type="curve" smooth="yes"/>
      <point x="473" y="649"/>
      <point x="546" y="580"/>
      <point x="546" y="464" type="curve" smooth="yes"/>
      <point x="546" y="303"/>
      <point x="369" y="205"/>
      <point x="95" y="25" type="curve"/>
      <point x="92" y="31"/>
      <point x="98" y="43"/>
      <point x="106" y="45" type="curve"/>
    </contour>
  </outline>
</glyph>
<glyph name="uni20B8.proportional" format="2">
  <advance width="663"/>
  <outline>
    <contour>
      <point x="64" y="728" type="line"/>
      <point x="64" y="692" type="line"/>
      <point x="599" y="692" type="line"/>
      <point x="599" y="728" type="line"/>
    </contour>
    <contour>
      <point x="64" y="540" type="line"/>
      <point x="64" y="329" type="line"/>
      <point x="103" y="329" type="line"/>
      <point x="117" y="445" type="line" smooth="yes"/>
      <point x="121" y="481"/>
      <point x="158.0" y="498.0"/>
      <point x="248" y="498" type="curve" smooth="yes"/>
      <point x="308" y="498" type="line"/>
      <point x="308" y="76" type="line" smooth="yes"/>
      <point x="308.0" y="47.0"/>
      <point x="265" y="40"/>
      <point x="213" y="40" type="curve" smooth="yes"/>
      <point x="192" y="40" type="line"/>
      <point x="192" y="0" type="line"/>
      <point x="472" y="0" type="line"/>
      <point x="472" y="40" type="line"/>
      <point x="451" y="40" type="line" smooth="yes"/>
      <point x="400" y="40"/>
      <point x="356.0" y="47.0"/>
      <point x="356" y="76" type="curve" smooth="yes"/>
      <point x="356" y="498" type="line"/>
      <point x="416" y="498" type="line" smooth="yes"/>
      <point x="506.0" y="498.0"/>
      <point x="542" y="481"/>
      <point x="546" y="445" type="curve" smooth="yes"/>
      <point x="560" y="329" type="line"/>
      <point x="599" y="329" type="line"/>
      <point x="599" y="540" type="line"/>
    </contour>
  </outline>
</glyph>
<glyph name="yen.proportional" format="2">
  <advance width="674"/>
  <outline>
    <contour>
      <point x="73" y="364" type="line"/>
      <point x="73" y="328" type="line"/>
      <point x="609" y="328" type="line"/>
      <point x="609" y="364" type="line"/>
    </contour>
    <contour>
      <point x="73" y="211" type="line"/>
      <point x="73" y="175" type="line"/>
      <point x="609" y="175" type="line"/>
      <point x="609" y="211" type="line"/>
    </contour>
    <contour>
      <point x="318" y="355" type="line"/>
      <point x="318" y="76" type="line" smooth="yes"/>
      <point x="318" y="47"/>
      <point x="278" y="40"/>
      <point x="224" y="40" type="curve" smooth="yes"/>
      <point x="200" y="40" type="line"/>
      <point x="200" y="0" type="line"/>
      <point x="482" y="0" type="line"/>
      <point x="482" y="40" type="line"/>
      <point x="458" y="40" type="line" smooth="yes"/>
      <point x="404" y="40"/>
      <point x="364" y="47"/>
      <point x="364" y="76" type="curve" smooth="yes"/>
      <point x="364" y="355" type="line"/>
    </contour>
    <contour>
      <point x="360" y="325" type="line"/>
      <point x="564" y="623" type="line" smooth="yes"/>
      <point x="588" y="658"/>
      <point x="606" y="670"/>
      <point x="633" y="670" type="curve" smooth="yes"/>
      <point x="642" y="670" type="line"/>
      <point x="642" y="710" type="line"/>
      <point x="462" y="710" type="line"/>
      <point x="462" y="670" type="line"/>
      <point x="468" y="670" type="line" smooth="yes"/>
      <point x="500" y="670"/>
      <point x="535" y="665"/>
      <point x="539" y="655" type="curve"/>
      <point x="344" y="363" type="line"/>
      <point x="350" y="364" type="line"/>
      <point x="147" y="659" type="line"/>
      <point x="147" y="666"/>
      <point x="174" y="670"/>
      <point x="206" y="670" type="curve" smooth="yes"/>
      <point x="219" y="670" type="line"/>
      <point x="219" y="710" type="line"/>
      <point x="32" y="710" type="line"/>
      <point x="32" y="670" type="line"/>
      <point x="40" y="670" type="line" smooth="yes"/>
      <point x="73" y="670"/>
      <point x="87" y="663"/>
      <point x="106" y="636" type="curve" smooth="yes"/>
      <point x="322" y="326" type="line"/>
    </contour>
  </outline>
</glyph>
<glyph name="zero.prop" format="2">
  <advance width="680"/>
  <outline>
    <contour>
      <point x="614" y="319" type="curve" smooth="yes"/>
      <point x="614" y="530"/>
      <point x="520" y="649"/>
      <point x="340" y="649" type="curve" smooth="yes"/>
      <point x="160" y="649"/>
      <point x="66" y="530"/>
      <point x="66" y="319" type="curve" smooth="yes"/>
      <point x="66" y="108"/>
      <point x="160" y="-11"/>
      <point x="340" y="-11" type="curve" smooth="yes"/>
      <point x="520" y="-11"/>
      <point x="614" y="108"/>
    </contour>
    <contour>
      <point x="121" y="319" type="curve" smooth="yes"/>
      <point x="121" y="500"/>
      <point x="183" y="608"/>
      <point x="340" y="608" type="curve" smooth="yes"/>
      <point x="496" y="608"/>
      <point x="559" y="500"/>
      <point x="559" y="319" type="curve" smooth="yes"/>
      <point x="559" y="138"/>
      <point x="496" y="30"/>
      <point x="340" y="30" type="curve" smooth="yes"/>
      <point x="183" y="30"/>
      <point x="121" y="138"/>
    </contour>
  </outline>
</glyph>
<glyph name="zero.slashlinprop" format="2">
  <advance width="644"/>
  <outline>
    <contour>
      <point x="321" y="-11" type="curve" smooth="yes"/>
      <point x="487" y="-11"/>
      <point x="587" y="123"/>
      <point x="587" y="362" type="curve" smooth="yes"/>
      <point x="587" y="601"/>
      <point x="487" y="735"/>
      <point x="321" y="735" type="curve" smooth="yes"/>
      <point x="155" y="735"/>
      <point x="55" y="601"/>
      <point x="55" y="362" type="curve" smooth="yes"/>
      <point x="55" y="123"/>
      <point x="155" y="-11"/>
    </contour>
    <contour>
      <point x="321" y="32" type="curve" smooth="yes"/>
      <point x="178" y="32"/>
      <point x="111" y="154"/>
      <point x="111" y="362" type="curve" smooth="yes"/>
      <point x="111" y="570"/>
      <point x="178" y="693"/>
      <point x="321" y="693" type="curve" smooth="yes"/>
      <point x="465" y="693"/>
      <point x="531" y="570"/>
      <point x="531" y="362" type="curve" smooth="yes"/>
      <point x="531" y="154"/>
      <point x="465" y="32"/>
    </contour>
    <contour>
      <point x="142" y="140" type="line"/>
      <point x="529" y="546" type="line"/>
      <point x="505" y="584" type="line"/>
      <point x="115" y="175" type="line"/>
    </contour>
  </outline>
</glyph>
<glyph name="zero.slasholdprop" format="2">
  <advance width="680"/>
  <outline>
    <contour>
      <point x="340" y="30" type="curve" smooth="yes"/>
      <point x="183" y="30"/>
      <point x="121" y="138"/>
      <point x="121" y="319" type="curve" smooth="yes"/>
      <point x="121" y="500"/>
      <point x="183" y="608"/>
      <point x="340" y="608" type="curve" smooth="yes"/>
      <point x="496" y="608"/>
      <point x="559" y="500"/>
      <point x="559" y="319" type="curve" smooth="yes"/>
      <point x="559" y="138"/>
      <point x="496" y="30"/>
    </contour>
    <contour>
      <point x="141" y="107" type="line"/>
      <point x="564" y="496" type="line"/>
      <point x="542" y="531" type="line"/>
      <point x="116" y="139" type="line"/>
    </contour>
    <contour>
      <point x="340" y="-11" type="curve" smooth="yes"/>
      <point x="520" y="-11"/>
      <point x="614" y="108"/>
      <point x="614" y="319" type="curve" smooth="yes"/>
      <point x="614" y="530"/>
      <point x="520" y="649"/>
      <point x="340" y="649" type="curve" smooth="yes"/>
      <point x="160" y="649"/>
      <point x="66" y="530"/>
      <point x="66" y="319" type="curve" smooth="yes"/>
      <point x="66" y="108"/>
      <point x="160" y="-11"/>
    </contour>
  </outline>
</glyph>
